# xmcd CD database file
#
# Track frame offsets:
#	150
#	25841
#	44355
#	61876
#	85045
#	98023
#	117461
#	151698
#	173431
#	189368
#	212774
#	235075
#	260207
#	294452
#	313067
#	330152
#
# Disc length: 4622 seconds
#
# Revision: 0
# Processed by: cddbd v1.5.2PL0 Copyright (c) Steve Scherf et al.
# Submitted via: CDex 1.81
#
DISCID=cc120c10
DTITLE=Phil Mason's New Orleans All-Stars - Let's face the music and dance
DYEAR=2002
DGENRE=Jazz
TTITLE0=When You and I Were Young Maggie
TTITLE1=Travelling Blues
TTITLE2=Let's Face the Music and Dance
TTITLE3=Highway Blues
TTITLE4=Hot Time in the Old Town Tonight
TTITLE5=Leaning on a Lamp Post
TTITLE6=Snag It
TTITLE7=Climax Rag
TTITLE8=Morning Has Broken
TTITLE9=Smiles
TTITLE10=My Mother's Eyes
TTITLE11=Goodnight Irene
TTITLE12=Summertime
TTITLE13=Tie Me to Your Apron Springs
TTITLE14=Burgundy Street Blues
TTITLE15=All My Loving
EXTD=YEAR: 2002
EXTT0=
EXTT1=
EXTT2=
EXTT3=
EXTT4=
EXTT5=
EXTT6=
EXTT7=
EXTT8=
EXTT9=
EXTT10=
EXTT11=
EXTT12=
EXTT13=
EXTT14=
EXTT15=
PLAYORDER=
